<svg width="219" height="92" viewBox="0 0 219 92" fill="none" xmlns="http://www.w3.org/2000/svg">
<path d="M213.699 6.07383C210.425 2.8732 205.914 0.887764 200.951 0.887764C195.987 0.887764 191.471 2.8732 188.202 6.07383C187.457 6.79662 186.778 7.58466 186.176 8.42709C185.53 9.32291 184.967 10.283 184.497 11.2925C184.475 11.336 184.459 11.3785 184.443 11.4221C183.448 13.6023 182.896 16.0099 182.896 18.5352V34.3426C182.896 35.3521 183.742 36.1777 184.773 36.1777H195.352H200.951C210.878 36.1777 219 28.239 219 18.5352C219 13.6834 216.967 9.26853 213.699 6.07383Z" fill="#E52038"/>
<path d="M205.735 5.48326V15.1059C205.735 15.7694 205.675 16.417 205.553 17.0429C205.133 16.4605 204.664 15.9098 204.15 15.4085C201.893 13.2006 198.779 11.8301 195.356 11.8301C191.932 11.8301 188.818 13.2006 186.561 15.4085C185.66 16.2875 184.899 17.2921 184.308 18.4034C183.96 17.3672 183.772 16.2558 183.772 15.1059C183.772 13.8215 184.004 12.5856 184.435 11.4416C184.44 11.4356 184.44 11.4307 184.44 11.4247C184.92 10.3678 185.501 9.36911 186.173 8.42978C188.183 5.95787 191.287 4.37189 194.753 4.37189H204.597C205.221 4.37189 205.735 4.8732 205.735 5.48326Z" fill="#46B9B0"/>
<path d="M205.551 17.0403C205.142 19.2205 204.049 21.1694 202.508 22.6802C200.515 24.6232 197.777 25.8314 194.757 25.8314C191.737 25.8314 188.993 24.6232 186.999 22.6802C185.784 21.4878 184.852 20.0303 184.311 18.3949C184.901 17.2885 185.663 16.279 186.558 15.4049C188.816 13.198 191.929 11.8266 195.353 11.8266C198.781 11.8266 201.896 13.198 204.149 15.4049C204.662 15.9072 205.131 16.4579 205.551 17.0403Z" fill="#F2AF5F"/>
<path d="M205.55 17.0405C205.142 19.2207 204.049 21.1695 202.508 22.6804C200.515 24.6233 197.777 25.8316 194.756 25.8316C191.736 25.8316 188.992 24.6233 186.999 22.6804C185.784 21.4879 184.851 20.0305 184.31 18.3951C183.405 20.073 182.897 21.9843 182.897 24.0023V34.9153C182.897 35.6055 183.482 36.178 184.195 36.178H195.352C202.204 36.178 207.809 30.7002 207.809 24.0023C207.809 21.4177 206.974 19.016 205.55 17.0405Z" fill="#F59D27"/>
<path d="M165.621 37.9508C165.621 38.3275 165.306 38.636 164.92 38.636H158.874C155.164 38.636 152.128 35.6677 152.128 32.0409C152.128 28.4141 155.164 25.4469 158.874 25.4469C162.586 25.4469 165.621 28.4141 165.621 32.0409V37.9508ZM175.686 1.62358H167.68C166.648 1.62358 165.81 2.44129 165.81 3.44983V15.7125C163.956 15.0619 161.961 14.7049 159.886 14.7049C150.167 14.7049 142.215 22.4766 142.215 31.9767C142.215 41.4767 150.167 49.2484 159.886 49.2484H167.464C167.536 49.2573 167.606 49.2701 167.68 49.2701H175.686C176.334 49.2701 176.906 48.9468 177.241 48.4564C177.439 48.1706 177.555 47.8256 177.555 47.4548V47.4429V31.9767V3.44983C177.555 2.44129 176.719 1.62358 175.686 1.62358Z" fill="#0C1826"/>
<path d="M79.9209 37.9507C79.9209 38.3274 79.6053 38.6359 79.2209 38.6359H73.175C69.4637 38.6359 66.4281 35.6676 66.4281 32.0408C66.4281 28.414 69.4637 25.4468 73.175 25.4468C76.8853 25.4468 79.9209 28.414 79.9209 32.0408V37.9507ZM74.1856 14.7048C64.4668 14.7048 56.5151 22.4775 56.5151 31.9766C56.5151 41.4766 64.4668 49.2483 74.1856 49.2483H90.02C91.0295 49.2483 91.855 48.4415 91.855 47.4557V31.9766C91.855 22.4775 83.9033 14.7048 74.1856 14.7048Z" fill="#0C1826"/>
<path d="M113.838 48.5342H104.42C104.071 48.5342 103.76 48.3236 103.636 48.0052L91.4504 16.6594C91.241 16.1225 91.6466 15.548 92.2343 15.548H102.411C102.772 15.548 103.093 15.7735 103.207 16.1087L108.661 32.0989C108.916 32.8494 110.003 32.8455 110.254 32.094L115.576 16.1146C115.689 15.7764 116.01 15.548 116.373 15.548H126.094C126.683 15.548 127.088 16.1235 126.878 16.6604L114.621 48.0072C114.497 48.3246 114.185 48.5342 113.838 48.5342Z" fill="#0C1826"/>
<path d="M140.682 7.11811C140.682 8.92656 140.032 10.4058 138.732 11.5527C137.432 12.7017 135.857 13.2751 134.008 13.2751C132.158 13.2751 130.583 12.7017 129.283 11.5527C127.983 10.4058 127.334 8.92656 127.334 7.11811C127.334 5.26122 127.983 3.75928 129.283 2.61034C130.583 1.46239 132.158 0.887914 134.008 0.887914C135.857 0.887914 137.432 1.46239 138.732 2.61034C140.032 3.75928 140.682 5.26122 140.682 7.11811Z" fill="#0C1826"/>
<path d="M41.92 37.9508C41.92 38.3275 41.6044 38.636 41.219 38.636H35.173C31.4628 38.636 28.4272 35.6677 28.4272 32.0409C28.4272 28.4141 31.4628 25.4469 35.173 25.4469C38.8843 25.4469 41.92 28.4141 41.92 32.0409V37.9508ZM51.9847 1.62358H43.9784C42.9467 1.62358 42.1091 2.44129 42.1091 3.44983V15.7125C40.255 15.0619 38.2602 14.7049 36.1846 14.7049C26.4658 14.7049 18.5142 22.4766 18.5142 31.9767C18.5142 41.4767 26.4658 49.2484 36.1846 49.2484H43.763C43.8348 49.2573 43.9046 49.2701 43.9784 49.2701H51.9847C52.6331 49.2701 53.2046 48.9468 53.5394 48.4564C53.7377 48.1706 53.854 47.8256 53.854 47.4548V47.4429V31.9767V3.44983C53.854 2.44129 53.0174 1.62358 51.9847 1.62358Z" fill="#0C1826"/>
<path d="M137.67 48.5342H130.345C129.125 48.5342 128.135 47.5672 128.135 46.3737V17.7085C128.135 16.515 129.125 15.548 130.345 15.548H137.67C138.891 15.548 139.88 16.515 139.88 17.7085V46.3737C139.88 47.5672 138.891 48.5342 137.67 48.5342Z" fill="#0C1826"/>
<path d="M127.897 80C127.897 80.3777 127.582 80.6862 127.195 80.6862H121.138C117.421 80.6862 114.38 77.7129 114.38 74.0792C114.38 70.4455 117.421 67.4733 121.138 67.4733C124.856 67.4733 127.897 70.4455 127.897 74.0792V80ZM137.981 51.6392H129.96C128.925 51.6392 128.088 52.4589 128.088 53.4694V57.7211C126.229 57.0695 124.232 56.7116 122.151 56.7116C112.415 56.7116 104.449 64.4981 104.449 74.015C104.449 83.5318 112.415 91.3183 122.151 91.3183H129.744C129.815 91.3272 129.886 91.3401 129.96 91.3401H137.981C138.631 91.3401 139.202 91.0158 139.538 90.5253C139.736 90.2386 139.854 89.8925 139.854 89.5218V89.5099V74.015V53.4694C139.854 52.4589 139.015 51.6392 137.981 51.6392Z" fill="#0C1826"/>
<path d="M0.887723 80.8969H10.8584C11.2225 80.8969 11.5412 81.1194 11.6807 81.4486C12.3433 83.0168 13.7261 83.8009 15.829 83.8009C18.1636 83.8009 19.333 83.0316 19.333 81.4931C19.333 80.5004 18.4438 79.8053 16.6666 79.4078L9.96317 78.0671C3.66539 76.7767 0.516492 73.5247 0.516492 68.3129C0.516492 64.8384 1.91341 62.0827 4.70625 60.0468C7.49908 58.012 10.9777 56.9945 15.1432 56.9945C19.7133 56.9945 23.3063 57.9507 25.9221 59.861C28.2648 61.5735 29.7811 63.8921 30.475 66.8179C30.6014 67.3548 30.1735 67.866 29.6101 67.866H20.2737C19.9055 67.866 19.5899 67.6366 19.4503 67.3034C18.8586 65.8914 17.5233 65.1854 15.4477 65.1854C13.3144 65.1854 12.2482 65.93 12.2482 67.4191C12.2482 68.3623 13.0352 68.9823 14.6101 69.2809L21.3894 70.8441C27.7884 72.2848 30.9878 75.6357 30.9878 80.8969C30.9878 84.3724 29.5788 87.0905 26.7606 89.0502C23.9415 91.012 20.3485 91.9918 15.9808 91.9918C11.5118 91.9918 7.82985 91.0238 4.93485 89.0878C2.33118 87.3466 0.691486 84.9617 0.0198305 81.9341C-0.0985185 81.4002 0.328347 80.8969 0.887723 80.8969Z" fill="#0C1826"/>
<path d="M49.31 66.0787C46.7903 66.0787 45.0777 67.3018 44.1745 69.747C43.9641 70.3155 44.3818 70.9187 45.0009 70.9187H53.17C53.7243 70.9187 54.1562 70.4223 54.0379 69.8923C53.8184 68.9144 53.3854 68.0898 52.7381 67.4194C51.8742 66.5256 50.7312 66.0787 49.31 66.0787ZM55.1951 79.5565H64.5487C65.1101 79.5565 65.5339 80.0628 65.4166 80.5987C64.6772 83.9783 63.0152 86.6716 60.4318 88.6788C57.5873 90.8877 53.957 91.9922 49.5386 91.9922C44.307 91.9922 40.0919 90.3795 36.8924 87.1522C33.693 83.9259 32.0938 79.7058 32.0938 74.493C32.0938 69.3307 33.7183 65.1235 36.9693 61.8715C40.2184 58.6204 44.3323 56.9939 49.31 56.9939C54.49 56.9939 58.5271 58.5334 61.422 61.6104C64.317 64.6895 65.7645 68.7592 65.7645 73.8227V75.8625C65.7645 76.3401 65.369 76.7267 64.8805 76.7267H44.6074C44.0571 76.7267 43.6414 77.2151 43.7365 77.7451C44.3545 81.187 46.2885 82.9074 49.5386 82.9074C51.9966 82.9074 53.608 81.976 54.3717 80.1122C54.5082 79.78 54.8299 79.5565 55.1951 79.5565Z" fill="#0C1826"/>
<path d="M68.4614 90.3834V58.6025C68.4614 58.1259 68.8569 57.7384 69.3455 57.7384H79.5377C80.0252 57.7384 80.4218 58.1259 80.4218 58.6025V58.6589C80.4218 59.3866 81.2745 59.7752 81.8622 59.3293C83.9176 57.773 86.5102 56.9938 89.6388 56.9938C93.3967 56.9938 96.3544 58.0993 98.514 60.3081C100.672 62.517 101.751 65.5081 101.751 69.2802V90.3834C101.751 90.861 101.355 91.2476 100.868 91.2476H90.7515C90.2629 91.2476 89.8674 90.861 89.8674 90.3834V72.11C89.8674 70.6714 89.4861 69.5165 88.7244 68.6474C87.9627 67.7792 86.845 67.3442 85.3732 67.3442C84.1543 67.3442 83.0993 67.6675 82.2112 68.3122C81.3534 68.9351 80.7687 69.7884 80.4551 70.8731C80.4319 70.9522 80.4218 71.0352 80.4218 71.1173V90.3834C80.4218 90.861 80.0252 91.2476 79.5377 91.2476H69.3455C68.8569 91.2476 68.4614 90.861 68.4614 90.3834Z" fill="#0C1826"/>
<path d="M159.17 66.0787C156.625 66.0787 154.904 67.3265 154.007 69.8211C153.815 70.358 154.236 70.9187 154.818 70.9187H163.068C163.603 70.9187 164.018 70.4391 163.906 69.9269C163.689 68.9342 163.254 68.0977 162.598 67.4194C161.735 66.5256 160.592 66.0787 159.17 66.0787ZM165.034 79.5565H174.447C174.989 79.5565 175.397 80.045 175.285 80.5621C174.55 83.9585 172.885 86.6647 170.292 88.6788C167.448 90.8877 163.817 91.9922 159.399 91.9922C154.167 91.9922 149.952 90.3795 146.753 87.1522C143.553 83.9259 141.954 79.7058 141.954 74.493C141.954 69.3307 143.579 65.1235 146.83 61.8715C150.079 58.6204 154.193 56.9939 159.17 56.9939C164.35 56.9939 168.387 58.5334 171.282 61.6104C174.177 64.6895 175.625 68.7592 175.625 73.8227V75.8931C175.625 76.3539 175.243 76.7267 174.772 76.7267H154.431C153.9 76.7267 153.5 77.1973 153.591 77.7095C154.202 81.1751 156.138 82.9074 159.399 82.9074C161.865 82.9074 163.478 81.9691 164.24 80.0934C164.37 79.7721 164.681 79.5565 165.034 79.5565Z" fill="#0C1826"/>
<path d="M201.328 58.1299V67.5736C201.328 68.1411 200.757 68.5515 200.209 68.3646C199.085 67.9829 197.806 67.7911 196.376 67.7911C193.024 67.7911 191.002 69.0192 190.312 71.4762C190.292 71.5504 190.282 71.6275 190.282 71.7046V90.413C190.282 90.8738 189.899 91.2476 189.429 91.2476H179.175C178.704 91.2476 178.321 90.8738 178.321 90.413V58.5729C178.321 58.1121 178.704 57.7384 179.175 57.7384H189.429C189.899 57.7384 190.282 58.1121 190.282 58.5729C190.282 59.2937 191.15 59.6684 191.702 59.1918C193.399 57.7265 195.515 56.9938 198.052 56.9938C199.171 56.9938 200.07 57.1095 200.75 57.3389C201.096 57.4556 201.328 57.772 201.328 58.1299Z" fill="#0C1826"/>
</svg>
