<svg width="30" height="31" viewBox="0 0 30 31" fill="none" xmlns="http://www.w3.org/2000/svg">
<g clip-path="url(#clip0_1182_373)">
<path d="M24.0598 7.93439C25.3473 9.30189 26.0386 10.8356 26.0386 13.3219C26.0386 17.6969 22.9673 21.6181 18.5011 23.5569L17.3848 21.8344C21.5536 19.5794 22.3686 16.6531 22.6936 14.8081C22.0223 15.1556 21.1436 15.2769 20.2823 15.1969C18.0273 14.9881 16.2498 13.1369 16.2498 10.8356C16.2498 9.67531 16.7108 8.56251 17.5312 7.74204C18.3517 6.92157 19.4645 6.46063 20.6248 6.46063C21.9661 6.46063 23.2486 7.07314 24.0598 7.93439ZM11.5598 7.93439C12.8473 9.30189 13.5386 10.8356 13.5386 13.3219C13.5386 17.6969 10.4673 21.6181 6.00107 23.5569L4.88482 21.8344C9.05357 19.5794 9.86857 16.6531 10.1936 14.8081C9.52232 15.1556 8.64357 15.2769 7.78233 15.1969C5.52732 14.9881 3.74982 13.1369 3.74982 10.8356C3.74982 9.67531 4.21076 8.56252 5.03123 7.74204C5.8517 6.92157 6.9645 6.46064 8.12482 6.46064C9.46607 6.46064 10.7486 7.07314 11.5598 7.93439Z" fill="#F69D27"/>
</g>
<defs>
<clipPath id="clip0_1182_373">
<rect width="30" height="30" fill="white" transform="translate(0 0.431885)"/>
</clipPath>
</defs>
</svg>
