<svg width="30" height="31" viewBox="0 0 30 31" fill="none" xmlns="http://www.w3.org/2000/svg">
<g clip-path="url(#clip0_1182_370)">
<path d="M5.72875 22.0832C4.44125 20.7157 3.75 19.1819 3.75 16.6957C3.75 12.3207 6.82125 8.39944 11.2875 6.46069L12.4038 8.18319C8.235 10.4382 7.42 13.3644 7.095 15.2094C7.76625 14.8619 8.645 14.7407 9.50625 14.8207C11.7613 15.0294 13.5388 16.8807 13.5388 19.1819C13.5388 20.3423 13.0778 21.4551 12.2573 22.2755C11.4369 23.096 10.3241 23.5569 9.16375 23.5569C7.8225 23.5569 6.54 22.9444 5.72875 22.0832ZM18.2288 22.0832C16.9412 20.7157 16.25 19.1819 16.25 16.6957C16.25 12.3207 19.3213 8.39944 23.7875 6.46069L24.9038 8.18319C20.735 10.4382 19.92 13.3644 19.595 15.2094C20.2662 14.8619 21.145 14.7407 22.0062 14.8207C24.2612 15.0294 26.0387 16.8807 26.0387 19.1819C26.0387 20.3423 25.5778 21.4551 24.7573 22.2755C23.9369 23.096 22.8241 23.5569 21.6637 23.5569C20.3225 23.5569 19.04 22.9444 18.2288 22.0832Z" fill="#F69D27"/>
</g>
<defs>
<clipPath id="clip0_1182_370">
<rect width="30" height="30" fill="white" transform="translate(0 0.431885)"/>
</clipPath>
</defs>
</svg>
